HIERARCHY
ROOT root     
{
	OFFSET 0.0000 0.0000 0.0000
	CHANNELS 6 Xposition Yposition Zposition Zrotation Yrotation Xrotation
	JOINT pelvis   
	{
		OFFSET 0.0000 0.0000 0.0000
		CHANNELS 3 Zrotation Yrotation Xrotation
		JOINT thorax   
		{
			OFFSET 0.0000 23.0750 -5.0000
			CHANNELS 3 Zrotation Yrotation Xrotation
			JOINT rclavicle
			{
				OFFSET 0.0000 28.0009 0.0000
				CHANNELS 3 Zrotation Yrotation Xrotation
				JOINT rhumerus 
				{
					OFFSET -18.5725 5.5939 0.0000
					CHANNELS 3 Zrotation Yrotation Xrotation
					JOINT rradius  
					{
						OFFSET -24.8459 0.0000 0.0000
						CHANNELS 3 Zrotation Yrotation Xrotation
						JOINT rhand    
						{
							OFFSET -24.5477 0.0000 0.0000
							CHANNELS 3 Zrotation Yrotation Xrotation
							End Site
							{
								OFFSET -8.1826 0.0000 0.0000
							}
						}
					}
				}
			}
			JOINT lclavicle
			{
				OFFSET 0.0000 28.0009 0.0000
				CHANNELS 3 Zrotation Yrotation Xrotation
				JOINT lhumerus 
				{
					OFFSET 18.5725 5.5939 0.0000
					CHANNELS 3 Zrotation Yrotation Xrotation
					JOINT lradius  
					{
						OFFSET 24.8459 0.0000 0.0000
						CHANNELS 3 Zrotation Yrotation Xrotation
						JOINT lhand    
						{
							OFFSET 24.5477 0.0000 0.0000
							CHANNELS 3 Zrotation Yrotation Xrotation
							End Site
							{
								OFFSET 8.1826 0.0000 0.0000
							}
						}
					}
				}
			}
			JOINT head     
			{
				OFFSET 0.0000 35.2030 0.0000
				CHANNELS 3 Zrotation Yrotation Xrotation
				End Site
				{
					OFFSET 0.0000 11.7343 0.0000
				}
			}
		}
		JOINT rfemur   
		{
			OFFSET -8.2817 0.0000 0.0000
			CHANNELS 3 Zrotation Yrotation Xrotation
			JOINT rtibia   
			{
				OFFSET 0.0000 -43.3627 0.0000
				CHANNELS 3 Zrotation Yrotation Xrotation
				JOINT rfoot    
				{
					OFFSET 0.0000 -38.2947 0.0000
					CHANNELS 3 Zrotation Yrotation Xrotation
					JOINT rtoes    
					{
						OFFSET 0.0000 0.0000 16.6054
						CHANNELS 3 Zrotation Yrotation Xrotation
						End Site
						{
							OFFSET 0.0000 0.0000 5.5351
						}
					}
				}
			}
		}
		JOINT lfemur   
		{
			OFFSET 8.2817 0.0000 0.0000
			CHANNELS 3 Zrotation Yrotation Xrotation
			JOINT ltibia   
			{
				OFFSET 0.0000 -43.3627 0.0000
				CHANNELS 3 Zrotation Yrotation Xrotation
				JOINT lfoot    
				{
					OFFSET 0.0000 -38.2947 0.0000
					CHANNELS 3 Zrotation Yrotation Xrotation
					JOINT ltoes    
					{
						OFFSET 0.0000 0.0000 16.6054
						CHANNELS 3 Zrotation Yrotation Xrotation
						End Site
						{
							OFFSET 0.0000 0.0000 5.5351
						}
					}
				}
			}
		}
	}
}
MOTION
Frames: 21
Frame Time:	0.0333333
-86.6731 80.9994 112.6144 4.2607 74.2161 20.5803 0.0000 -0.0000 0.0000 -4.0034 -1.6771 2.0859 26.3284 -0.8082 -0.0000 41.3167 21.6295 -1.2570 -0.0000 53.3695 -0.0000 -3.3383 8.9115 -0.2602 -27.3108 8.6202 -0.0000 -39.5415 0.5505 6.6076 0.0000 -52.3398 -0.0000 -0.0806 8.6422 -0.0061 -3.0486 0.9724 -14.2349 0.1717 -14.0952 -29.9939 -0.0000 -0.0000 70.6902 0.0000 -16.5194 0.4124 -0.1223 0.0000 -61.3715 -9.4692 -2.4266 -42.3079 -0.0000 -0.0000 35.5063 -0.0082 9.2854 -3.4294 -0.5603 0.0000 -11.2711
-85.8423 80.7671 113.3936 2.0473 74.6779 20.5385 0.0000 -0.0000 0.0000 -3.2113 -1.9487 3.3947 26.3338 -0.8032 0.0000 44.5234 19.8766 -0.7673 -0.0000 52.3196 -0.0000 -3.8407 9.8564 -0.3313 -27.2661 8.3536 -0.0000 -40.9594 0.9387 7.7774 0.0000 -53.1341 -0.0000 0.8832 8.0005 0.0618 -3.0499 1.4325 -16.3862 0.7432 -10.5584 -37.7844 -0.0000 -0.0000 71.4953 -0.0000 -13.8970 -2.4206 0.5987 -0.0000 -63.1240 -8.7478 -2.1250 -44.9297 -0.0000 -0.0000 38.0813 -0.0082 8.7228 -5.2351 -0.8020 -0.0000 -10.8732
-85.2449 80.6033 114.2374 -1.3266 75.4780 19.7863 0.0000 -0.0000 0.0000 -2.0291 -2.6603 4.3866 26.2272 -1.0288 -0.0000 47.8343 17.9416 -0.4064 -0.0000 49.5003 -0.0000 -3.6115 10.0623 -0.3180 -27.2192 8.0174 -0.0000 -42.2572 2.0601 9.4272 0.0000 -52.7164 -0.0000 1.4289 7.7260 0.0965 -3.2558 2.0063 -18.0509 1.0743 -7.4438 -45.0691 -0.0000 -0.0000 69.0237 -0.0000 -12.1292 -4.7901 1.0281 -0.0000 -62.4170 -7.7215 -1.7871 -47.8864 -0.0000 -0.0000 40.1368 -0.0082 7.9301 -6.6530 -0.9246 -0.0000 -11.2336
-84.7839 80.4687 115.0971 -5.3259 76.5066 18.5722 0.0000 -0.0000 0.0000 -0.7246 -3.7432 5.5081 26.0138 -1.4019 -0.0000 50.7919 15.8052 -0.1270 -0.0000 45.2192 -0.0000 -3.2039 9.8708 -0.2767 -27.0996 7.7681 -0.0000 -43.4908 3.7016 11.4813 0.0000 -51.1140 -0.0000 1.3712 7.7224 0.0926 -3.3884 2.6067 -19.6955 1.0930 -5.3246 -51.2938 -0.0000 -0.0000 64.0213 -0.0000 -9.8612 -6.1655 1.0696 0.0000 -62.9720 -6.5058 -1.6018 -51.0314 -0.0000 -0.0000 41.9246 -0.0082 6.9467 -7.6927 -0.9344 -0.0000 -12.1599
-84.2786 80.3122 115.9757 -8.9561 77.8481 17.3793 0.0000 -0.0000 0.0000 0.2570 -5.0528 7.4040 25.8883 -1.9608 0.0000 52.9707 13.2360 0.2246 -0.0000 40.0456 -0.0000 -2.9166 9.7757 -0.2495 -26.7726 7.6152 -0.0000 -44.7813 5.7103 13.7032 0.0000 -48.5438 -0.0000 0.9318 7.8255 0.0637 -3.1339 2.9520 -21.7118 1.2440 -4.5729 -55.8471 -0.0000 -0.0000 58.2059 0.0000 -7.7847 -6.0373 0.8238 -0.0000 -64.3627 -5.2533 -1.8956 -53.7726 -0.0000 -0.0000 43.5484 -0.0082 6.1313 -8.5622 -0.9167 0.0000 -13.0655
-83.7850 80.0717 116.8781 -12.1734 79.4369 16.4939 0.0000 -0.0000 0.0000 0.8472 -6.2887 9.8052 25.8585 -2.7872 -0.0000 54.4442 10.0039 0.6023 -0.0000 34.6569 -0.0000 -2.2705 9.3360 -0.1854 -26.2416 7.5128 0.0000 -46.1855 8.2419 15.6619 0.0000 -45.4103 -0.0000 0.4430 7.9603 0.0308 -2.4768 2.9920 -24.1255 1.5600 -4.5783 -59.5238 -0.0000 -0.0000 52.8641 0.0000 -5.6732 -5.2879 0.5245 0.0000 -66.9144 -3.9532 -2.6843 -56.4693 -0.0000 -0.0000 45.1910 -0.0082 5.6881 -9.4068 -0.9327 0.0000 -14.2493
-83.5073 79.6471 117.8807 -16.5779 81.0321 15.0143 0.0000 -0.0000 0.0000 1.4023 -7.1657 11.8900 25.8158 -3.8986 0.0000 55.6283 5.9776 0.5884 -0.0000 29.6932 -0.0000 -1.0105 8.3268 -0.0736 -25.5896 7.5985 0.0000 -47.5961 11.4411 17.0351 0.0000 -42.0798 -0.0000 -0.0076 8.1341 -0.0005 -1.6026 2.9341 -26.8392 2.3914 -4.5563 -63.6072 -0.0000 -0.0000 49.7201 -0.0000 -4.8650 -3.9387 0.3350 0.0000 -68.2313 -2.4269 -3.4340 -60.2378 -0.0000 -0.0000 47.3846 -0.0082 5.2897 -10.2823 -0.9459 0.0000 -16.1607
-83.4978 78.8961 118.9866 -22.5928 82.4107 12.7646 0.0000 -0.0000 0.0000 2.0051 -7.5773 13.3025 25.7600 -5.3202 -0.0000 56.6117 0.9447 0.1987 -0.0000 25.9285 -0.0000 0.0490 7.3578 0.0032 -24.9765 8.0868 0.0000 -48.7013 15.1740 17.8630 0.0000 -38.7486 -0.0000 -0.4832 8.4458 -0.0357 -0.7812 2.8887 -29.9113 3.4673 -4.1065 -68.6251 -0.0000 -0.0000 49.4807 0.0000 -4.6943 -1.7891 0.1469 0.0000 -69.8998 -0.7915 -3.8017 -65.6354 -0.0000 -0.0000 50.6491 -0.0082 4.8162 -11.2771 -0.9443 0.0000 -18.4721
-83.5942 77.6106 120.0964 -27.6164 83.7911 11.8283 0.0000 -0.0000 0.0000 2.3054 -7.8800 14.4858 25.6994 -7.0705 0.0000 57.5364 -4.6976 -1.0114 -0.0000 22.9550 -0.0000 0.4732 6.8139 0.0282 -24.3554 9.0388 0.0000 -49.4220 19.2156 18.1655 0.0000 -35.3584 -0.0000 -0.9877 8.9699 -0.0775 -0.2062 2.8737 -33.3873 4.2019 -3.6398 -74.3384 -0.0000 -0.0000 52.3838 0.0000 -3.9388 -1.1258 0.0775 0.0000 -69.2168 0.4706 -4.1096 -72.2125 -0.0000 -0.0000 55.3265 -0.0082 4.4376 -12.6676 -0.9750 0.0000 -20.6161
-83.6986 75.6243 121.1586 -29.9893 85.4669 13.3817 0.0000 -0.0000 0.0000 2.2401 -8.5395 15.8248 25.3831 -9.0778 -0.0000 58.5914 -10.6598 -3.7171 -0.0000 20.3088 -0.0000 0.7992 6.3610 0.0444 -23.5411 10.4273 0.0000 -50.1579 23.4806 17.3123 0.0000 -31.7763 -0.0000 -1.5165 9.6474 -0.1280 0.0763 3.0622 -37.0710 4.4969 -3.5836 -80.7860 -0.0000 -0.0000 58.0017 -0.0000 -3.2048 -3.0249 0.1693 0.0000 -67.2284 1.2298 -4.7212 -79.4429 -0.0000 -0.0000 61.4331 -0.0082 4.1914 -14.6360 -1.0609 0.0000 -22.5354
-83.8094 72.9063 122.1921 -29.3146 87.2252 17.6366 0.0000 -0.0000 0.0000 1.9126 -9.5770 17.3532 24.6419 -11.2520 0.0000 59.6321 -16.6319 -8.2668 -0.0000 17.5714 -0.0000 1.3935 6.4236 0.0782 -22.4254 12.5333 -0.0000 -51.2037 27.6989 14.8846 0.0000 -28.0702 -0.0000 -1.9090 10.4225 -0.1741 0.2114 3.6693 -40.6276 4.7132 -3.7859 -88.0650 -0.0000 -0.0000 65.4979 0.0000 -3.5848 -6.5216 0.4077 -0.0000 -65.8494 1.7330 -5.4787 -86.9135 -0.0000 -0.0000 68.5819 -0.0082 4.0302 -17.2687 -1.1982 0.0000 -24.1156
-83.8403 69.6076 123.2582 -31.4908 88.4518 18.4705 0.0000 -0.0000 0.0000 1.4635 -10.3933 19.1122 23.5177 -13.0973 0.0000 60.2446 -22.7300 -14.0895 -0.0000 14.7748 -0.0000 1.8279 7.1263 0.1138 -21.2211 15.3520 0.0000 -52.4193 31.6228 11.0914 0.0000 -24.3620 -0.0000 -1.7879 11.1639 -0.1747 0.2836 4.6154 -43.7256 5.1584 -3.5053 -95.3044 -0.0000 -0.0000 73.6265 -0.0000 -4.7539 -10.4548 0.8646 0.0000 -64.7017 2.1940 -5.6509 -93.9905 -0.0000 -0.0000 76.3235 -0.0082 3.8608 -20.7408 -1.3691 0.0000 -24.9021
-83.6382 66.0248 124.3234 -49.2115 88.7646 2.9877 0.0000 -0.0000 0.0000 0.9236 -10.5105 21.0628 22.2326 -14.0948 -0.0000 60.1682 -28.4578 -21.5334 -0.0000 11.1005 -0.0000 2.1161 8.2270 0.1522 -20.1886 18.3497 0.0000 -53.7768 35.0182 6.1818 0.0000 -20.4343 -0.0000 -1.1726 11.5481 -0.1186 0.1033 5.6232 -46.0274 5.8031 -2.4376 -101.3417 -0.0000 -0.0000 81.3893 0.0000 -5.4614 -14.7251 1.3921 -0.0000 -63.1083 2.4433 -4.8496 -100.0657 -0.0000 -0.0000 84.2465 -0.0082 3.5801 -24.8127 -1.5040 -0.0000 -25.3103
-83.1720 62.5320 125.2526 -62.4492 88.4708 -8.5153 0.0000 -0.0000 0.0000 0.3235 -10.1802 22.6301 21.1760 -14.2442 -0.0000 59.1619 -33.7710 -29.3921 -0.0000 7.5458 -0.0000 2.6710 8.4523 0.1974 -19.5107 20.7762 0.0000 -55.3705 38.0026 0.2715 0.0000 -16.6067 -0.0000 -0.9008 11.8050 -0.0931 -0.5159 6.4603 -47.3900 6.4197 -1.1439 -106.1864 -0.0000 -0.0000 88.4352 0.0000 -5.3954 -18.9834 1.7598 0.0000 -62.4135 2.3575 -3.6214 -105.1739 0.0000 0.0000 91.7653 -0.0082 3.2475 -28.4980 -1.5508 -0.0000 -26.8386
-82.5083 59.4557 125.9713 -66.2419 88.3562 -10.5586 0.0000 -0.0000 0.0000 -0.1882 -9.9573 23.1804 20.6970 -14.0203 0.0000 57.3613 -38.4483 -34.7528 -0.0000 5.2959 -0.0000 2.9460 7.5406 0.1942 -19.2984 22.3643 -0.0000 -56.9886 40.3755 -5.2535 0.0000 -13.3707 -0.0000 -1.8244 12.8297 -0.2051 -1.3656 6.9187 -48.2670 6.8107 -0.2627 -110.5921 0.0000 0.0000 94.6797 -0.0000 -5.3514 -22.3459 2.0396 -0.0000 -63.4482 2.2984 -2.8562 -109.6749 0.0000 0.0000 98.2450 -0.0082 3.2233 -31.1089 -1.6667 -0.0000 -29.6523
-81.6076 57.0137 126.5342 -70.0430 88.6258 -12.5090 0.0000 -0.0000 0.0000 -0.4355 -9.8688 22.7768 21.2146 -13.4907 -0.0000 55.1694 -41.6675 -37.6548 -0.0000 3.6797 -0.0000 1.6274 6.5730 0.0935 -19.7086 23.0015 0.0000 -58.2880 41.3386 -9.3820 0.0000 -10.2607 -0.0000 -3.6659 14.7878 -0.4759 -2.0307 6.7713 -49.3335 7.0000 0.1945 -114.3884 0.0000 0.0000 99.8268 0.0000 -5.7185 -24.9128 2.4155 -0.0000 -64.3384 2.7142 -2.7923 -113.3551 0.0000 0.0000 103.3390 -0.0082 3.7340 -33.0693 -2.0395 0.0000 -32.3459
-80.3361 55.3737 127.0355 -81.8893 88.9547 -22.7100 0.0000 -0.0000 0.0000 -0.3044 -9.5338 21.8818 22.6744 -12.6069 -0.0000 53.4218 -42.8462 -38.6042 -0.0000 2.4721 -0.0000 -1.4698 5.6408 -0.0724 -20.6727 22.6522 -0.0000 -59.1035 40.1335 -12.0885 0.0000 -6.8822 -0.0000 -4.9735 17.2154 -0.7533 -2.4561 6.0527 -50.7143 7.0483 0.5571 -116.6028 0.0000 0.0000 103.4840 -0.0000 -6.0756 -27.4405 2.8081 0.0000 -63.7761 3.5886 -2.9745 -115.5890 0.0000 0.0000 106.9800 -0.0082 4.4356 -34.8684 -2.5392 -0.0000 -34.7622
-78.6214 54.6951 127.5100 -110.2206 89.0851 -49.7388 0.0000 -0.0000 0.0000 0.3368 -8.9645 20.5213 24.0759 -11.6332 -0.0000 52.8989 -41.3928 -37.6867 -0.0000 1.7662 -0.0000 -4.0583 3.8577 -0.1367 -21.8762 21.4839 0.0000 -59.5412 36.9791 -12.1584 0.0000 -4.4897 -0.0000 -5.1117 20.3437 -0.9177 -2.9651 5.0725 -52.1492 6.7922 0.8499 -116.9622 0.0000 0.0000 105.5590 0.0000 -6.3536 -29.5662 3.1448 0.0000 -63.8091 4.7169 -3.1542 -116.1549 0.0000 0.0000 109.0790 -0.0082 4.9143 -35.9691 -2.8911 -0.0000 -38.5515
-76.4308 55.0729 127.9250 -153.8508 88.8927 -92.3702 0.0000 -0.0000 0.0000 1.4909 -8.5430 18.4618 24.9172 -10.8896 0.0000 53.2149 -36.8440 -34.2286 -0.0000 1.4598 -0.0000 -4.1622 0.9716 -0.0353 -23.3009 19.7454 0.0000 -59.3560 32.3415 -7.9191 0.0000 -4.3530 -0.0000 -5.8352 23.8001 -1.2307 -3.6307 3.8903 -53.9274 6.0195 0.7743 -115.8261 0.0000 0.0000 106.2220 0.0000 -6.9672 -30.5121 3.5504 0.0000 -65.6172 6.1230 -3.6951 -115.1644 0.0000 0.0000 109.4690 -0.0082 5.3438 -35.8865 -3.1384 0.0000 -43.4011
-73.6744 56.5072 128.2327 169.6137 88.2129 -128.3512 0.0000 -0.0000 0.0000 2.7537 -8.4080 15.8140 26.1031 -9.8670 -0.0000 53.2131 -29.8354 -28.1847 -0.0000 1.6244 -0.0000 -2.1255 -1.1816 0.0219 -25.4766 17.3458 -0.0000 -57.4748 26.5073 0.2123 0.0000 -6.2047 -0.0000 -8.1593 24.4969 -1.7742 -4.1627 2.3392 -56.5701 4.8312 0.1860 -112.9953 0.0000 0.0000 105.3810 -0.0000 -7.7097 -30.7608 3.9608 0.0000 -66.8478 7.6230 -5.0007 -112.4266 0.0000 0.0000 107.9920 -0.0082 6.0349 -35.1876 -3.4862 0.0000 -47.1071
-70.2818 58.9473 128.4462 149.5811 87.2842 -148.4741 0.0000 -0.0000 0.0000 3.5735 -8.2831 12.7055 28.0260 -7.5601 0.0000 52.3656 -21.6609 -21.3948 -0.0000 1.9896 -0.0000 -1.3963 0.4053 -0.0049 -28.0835 14.3499 0.0000 -53.7645 19.3221 8.2616 0.0000 -8.3072 -0.0000 -7.7914 19.9388 -1.3716 -4.4827 0.6942 -59.2002 3.4940 -0.6075 -107.9642 0.0000 0.0000 102.4920 -0.0000 -8.0412 -30.8101 4.1387 -0.0000 -66.7505 8.7390 -6.8321 -107.6023 0.0000 0.0000 104.4000 -0.0082 6.6689 -34.2427 -3.7642 -0.0000 -49.8928
